<?xml version="1.0" standalone="no"?>
<!DOCTYPE svg PUBLIC "-//W3C//DTD SVG 20010904//EN"
 "http://www.w3.org/TR/2001/REC-SVG-20010904/DTD/svg10.dtd">
<svg version="1.0" xmlns="http://www.w3.org/2000/svg"
 width="143.000000pt" height="144.000000pt" viewBox="0 0 143.000000 144.000000"
 preserveAspectRatio="xMidYMid meet">

<g transform="translate(0.000000,144.000000) scale(0.100000,-0.100000)"
fill="#000000" stroke="none">
<path d="M605 1361 c-61 -12 -179 -56 -232 -87 -61 -35 -182 -155 -217 -216
-15 -26 -41 -84 -58 -130 -26 -73 -30 -97 -31 -198 -2 -118 5 -150 56 -275 48
-118 193 -264 312 -315 198 -85 379 -80 574 16 53 26 95 58 151 114 229 229
254 578 60 840 -49 66 -164 163 -225 189 -130 57 -287 82 -390 62z m290 -75
c77 -28 188 -101 243 -161 99 -108 162 -265 162 -399 0 -65 -24 -194 -38 -208
-5 -5 -73 88 -151 207 -78 118 -148 215 -156 215 -15 0 -21 -7 -89 -107 l-43
-62 -34 50 c-19 28 -39 58 -44 67 -48 79 -119 182 -135 197 -20 18 -21 18 -40
-1 -11 -10 -98 -138 -194 -284 -227 -343 -207 -316 -219 -295 -38 68 -49 264
-22 370 23 85 89 199 155 265 63 63 179 132 261 155 74 20 275 15 344 -9z
m-256 -339 c22 -35 41 -67 41 -72 0 -5 -10 -19 -21 -31 l-22 -23 -44 26 -44
25 -37 -40 c-26 -27 -42 -38 -51 -33 -10 6 4 34 54 110 37 55 71 101 75 101 4
0 26 -28 49 -63z m451 -294 c71 -108 130 -204 130 -213 0 -43 -123 -172 -213
-226 -235 -138 -523 -100 -717 95 -108 109 -109 92 15 280 58 88 111 161 116
161 6 0 23 -7 40 -15 29 -16 30 -15 65 24 l36 40 38 -25 c44 -29 62 -25 91 23
12 19 25 31 29 26 14 -16 242 -365 246 -378 11 -28 64 -28 64 1 0 7 -22 46
-48 86 -27 40 -65 98 -85 129 l-37 56 43 66 c23 37 45 67 49 67 4 0 66 -89
138 -197z"/>
</g>
</svg>
